<svg width="50" height="50" viewBox="0 0 50 50" fill="none" xmlns="http://www.w3.org/2000/svg">
<path d="M17.6758 42.5819C17.6758 45.005 19.6471 46.9763 22.0703 46.9763C24.4933 46.9763 26.4647 45.005 26.4647 42.5819C26.4647 40.1588 24.4933 38.1875 22.0703 38.1875C19.6471 38.1875 17.6758 40.1588 17.6758 42.5819ZM22.0703 41.1169C22.8779 41.1169 23.5351 41.7741 23.5351 42.5819C23.5351 43.3894 22.8779 44.0466 22.0703 44.0466C21.2625 44.0466 20.6054 43.3894 20.6054 42.5819C20.6054 41.7741 21.2625 41.1169 22.0703 41.1169Z" fill="black"/>
<path d="M32.4219 42.5819C32.4219 45.005 34.3931 46.9763 36.8163 46.9763C39.2394 46.9763 41.2106 45.005 41.2106 42.5819C41.2106 40.1588 39.2394 38.1875 36.8163 38.1875C34.3931 38.1875 32.4219 40.1588 32.4219 42.5819ZM36.8163 41.1169C37.6241 41.1169 38.2809 41.7741 38.2809 42.5819C38.2809 43.3894 37.6241 44.0466 36.8163 44.0466C36.0084 44.0466 35.3516 43.3894 35.3516 42.5819C35.3516 41.7741 36.0084 41.1169 36.8163 41.1169Z" fill="black"/>
<path d="M48.5344 8.89053H11.4566C10.955 7.13481 10.4876 5.49888 10.0862 4.09372C9.90659 3.46484 9.33169 3.03125 8.67769 3.03125H1.46482C0.65585 3.03125 0 3.68709 0 4.49606C0 5.30503 0.65585 5.96091 1.46482 5.96091H7.57272C9.21078 11.6948 13.0402 25.0982 14.6457 30.7173L14.0907 31.8273C12.6283 34.7523 14.7581 38.187 18.0213 38.187H42.675C43.4841 38.187 44.14 37.5311 44.14 36.722C44.14 35.9133 43.4841 35.2573 42.675 35.2573H18.0213C16.9319 35.2573 16.2243 34.1111 16.7111 33.1373L17.1159 32.3277H42.675C43.3291 32.3277 43.9038 31.8942 44.0834 31.2652L49.9428 10.7578C50.2097 9.82372 49.5081 8.89053 48.5344 8.89053ZM41.5703 29.398H17.3157C16.5175 26.6044 14.2837 18.7864 12.2936 11.8202H46.5925L41.5703 29.398Z" fill="black"/>
</svg>
