<svg width="100" height="100" viewBox="0 0 100 100" fill="none" xmlns="http://www.w3.org/2000/svg">
<path d="M48.8818 0.575195C49.9263 0.4504 50.9755 0.451332 51.9531 0.807617L52.1475 0.883789L52.1553 0.886719C52.8532 1.16468 53.2112 1.65363 53.6338 2.32617C53.9608 2.89037 54.1811 3.51159 54.3838 4.18555C54.5324 4.67975 54.676 5.22049 54.8477 5.75684L55.0303 6.29004C55.5295 7.8578 56.0273 9.4228 56.5254 11.0547V11.0557C56.7903 12.0052 57.0309 13.2262 57.8105 14.1523C58.5513 15.594 59.9065 16.3265 61.292 16.8145V16.8135C64.5696 18.0046 66.9191 16.3345 68.9902 14.6309C69.735 14.2324 70.3989 13.7201 71.0244 13.2148C71.6746 12.6896 72.2767 12.1803 72.9316 11.752C73.6036 11.3125 74.2952 10.7894 74.9053 10.374C75.4657 9.99243 76.0309 9.64722 76.6592 9.37305L76.9326 9.25977L76.9395 9.25684C77.7546 8.92291 78.7973 9.10013 79.791 9.5791C80.6581 9.99706 81.3863 10.5966 81.7764 11.1055L81.9229 11.3174L81.9238 11.3193C82.5673 12.374 82.3967 13.3329 82.0459 14.4551L81.6582 15.6416C81.5201 16.0704 81.343 16.4482 81.1572 16.9248C81.0022 17.3226 80.8562 17.7575 80.7949 18.2334C80.4742 18.5643 80.309 18.946 80.1963 19.2939C80.1336 19.4876 80.0811 19.6921 80.0342 19.8613C79.9848 20.0396 79.9379 20.1949 79.8789 20.3359L79.876 20.3428L79.873 20.3506C79.7326 20.7199 79.5779 21.09 79.4199 21.4717C79.2631 21.8507 79.1032 22.2402 78.9561 22.6357C78.6986 23.3278 78.4748 24.0555 78.3711 24.8213L78.334 25.1514L78.333 25.1641C78.2605 26.3429 78.3183 27.6615 79.207 28.7695C80.2356 30.5782 81.7385 31.9149 84.0459 32.0654L84.2734 32.0762L84.2793 32.0771C86.9271 32.1288 89.5331 32.1025 92.1572 32.0283L94.79 31.9395C96.4012 31.8753 97.7402 32.1282 98.7314 33.2822C98.7726 33.6997 98.9374 34.052 99.0791 34.3379C99.2531 34.6889 99.3883 34.9395 99.4453 35.2285C99.5781 36.3959 99.4651 37.1633 99.124 37.7871C98.8173 38.348 98.2968 38.8481 97.4629 39.416L97.0859 39.6641C96.7412 39.8837 96.2512 40.1324 95.8555 40.4873C95.1632 40.8082 94.5305 41.208 93.9248 41.6191C93.4447 41.945 92.9962 42.2674 92.5322 42.5801L92.0605 42.8896L92.0557 42.8926C90.7478 43.7479 89.2193 44.5582 88.0869 45.7842C86.8367 47.1285 86.3668 48.7081 86.5176 50.4766V50.4775C86.6759 53.1263 88.4318 54.7549 90.4814 56.0156V56.0166C92.4187 57.2511 94.3013 58.5529 96.2207 59.8564L98.1553 61.1582L98.1582 61.1602C99.2314 61.862 99.5381 62.9108 99.4619 64.1475L99.4424 64.3975V64.3994C99.3752 65.1059 99.2094 65.7172 98.9062 66.2373C98.6082 66.7485 98.1616 67.1974 97.4902 67.5674C97.1411 67.7331 96.8593 67.79 96.4219 67.79H85.0068C83.6683 67.79 82.5364 68.1022 81.5635 68.6846C80.716 69.1919 80.0089 69.8926 79.3936 70.7314L79.1357 71.0986L79.1328 71.1035C77.7853 73.1493 78.0496 75.1942 78.8721 77.1953V77.1943C79.1146 77.7906 79.3053 78.4031 79.5146 79.0469C79.7191 79.6755 79.9387 80.3277 80.2344 80.9678H80.2354C80.4856 81.5827 80.6623 82.1769 80.9121 82.8564C81.137 83.4681 81.4066 84.0946 81.7998 84.6699C81.8095 84.7061 81.8237 84.745 81.8447 84.7852C81.8802 84.8529 81.9223 84.9004 81.9443 84.9238C81.9459 84.9255 81.9486 84.927 81.9502 84.9287C81.9516 84.9449 81.9537 84.9779 81.9502 85.0391C81.9469 85.0953 81.9365 85.2117 81.9414 85.3203C81.9468 85.4398 81.9698 85.5914 82.0508 85.7461L82.0576 85.7598L82.0664 85.7734C82.3822 86.2949 82.4155 86.7961 82.3086 87.3291C82.2008 87.8662 81.9629 88.3918 81.7119 89.002C81.4685 89.235 81.2117 89.4854 80.9531 89.7861C80.7338 89.9038 80.524 90.03 80.3271 90.1523C80.0981 90.2947 79.8871 90.428 79.668 90.5488C79.241 90.7843 78.8173 90.9524 78.3164 90.9834C77.2824 90.9808 76.376 90.6738 75.5186 90.1064H75.5176C74.1596 89.15 72.8023 88.1928 71.4443 87.2363C69.9258 86.0365 68.3995 84.7202 66.5742 83.7471L66.2031 83.5566C65.0847 82.986 63.7021 82.8472 62.3994 83.0381C61.1758 83.2174 59.9709 83.6953 59.0713 84.4434L58.8994 84.5928C57.6626 85.7011 56.972 87.0317 56.5938 88.6191C56.2401 90.0386 55.752 91.3681 55.3125 92.7676C54.8115 94.2725 54.3807 95.7758 53.9551 97.2676C53.2918 98.5645 52.1463 99.3316 50.6826 99.4736L50.3828 99.4941H50.3809C48.9204 99.5576 47.2598 99.1228 46.5508 97.6191L46.4854 97.4707L46.4824 97.4648L46.3145 97.0596C45.494 95.0279 44.9606 92.9403 44.3496 90.7988L44.3477 90.791L44.3457 90.7842L44.168 90.2041C43.7593 88.8234 43.3635 87.2631 42.5752 85.9443L42.5713 85.9375L42.5664 85.9307L42.4248 85.7178C40.9262 83.5606 38.295 82.4051 35.333 83.0264C34.7795 83.04 34.3039 83.226 33.8965 83.4434C33.6858 83.5558 33.4863 83.6806 33.3027 83.7969C33.1142 83.9162 32.9466 84.0241 32.7793 84.1201L32.7627 84.1289L32.748 84.1396C31.8746 84.731 31.0393 85.3556 30.2129 85.9824C29.591 86.4541 28.9752 86.9258 28.3457 87.3906L27.7109 87.8525C26.5882 88.6574 25.3953 89.4632 24.1943 90.2734C23.3558 90.5403 22.5857 90.775 21.6982 90.7773C20.723 90.7133 19.736 90.1363 19.0342 89.3018C18.3259 88.4595 17.9784 87.4428 18.1543 86.5742L18.1836 86.4297L18.1299 86.293C17.9822 85.9166 17.9594 85.5798 17.9961 85.1748C18.3169 84.9134 18.4399 84.5757 18.4893 84.2744C18.5163 84.1088 18.5254 83.9334 18.5342 83.8145C18.5392 83.7468 18.5435 83.6914 18.5498 83.6455C18.8812 83.317 19.0693 82.9356 19.1953 82.5742C19.2655 82.3728 19.3189 82.1703 19.3662 81.9873C19.4139 81.8027 19.4536 81.6419 19.501 81.4893C20.0032 80.1178 20.5002 78.7647 21.0654 77.4814L21.0693 77.4727L21.0723 77.4648C21.6061 76.1254 22.147 74.579 21.8115 73.0498L21.7334 72.7441C21.2242 70.9441 20.0344 69.4073 18.2461 68.4375L17.8799 68.251L17.8682 68.2451L17.6465 68.1523C16.5429 67.7166 15.5063 67.7217 14.5049 67.7217H2.97852C1.08701 66.9119 0.243922 64.7519 0.566406 62.8223C0.720488 61.9879 1.28045 61.3819 2.0293 60.8389L2.36133 60.6094L2.36816 60.6045C3.75858 59.6503 5.20229 58.7477 6.65137 57.8271C8.0966 56.9091 9.54472 55.975 10.9229 54.9697L10.9219 54.9688C13.1253 53.4373 13.9125 50.7256 13.2568 48.2734L13.1885 48.0361V48.0352L13.0586 47.6631C12.4526 46.093 11.2637 45.0619 10.0312 44.2246L9.46094 43.8506L9.45898 43.8486L7.56348 42.6621C5.98388 41.6716 4.41209 40.6726 2.91113 39.6279L2.01953 38.9951C1.30117 38.4636 0.825131 37.8315 0.619141 37.0879C0.438232 36.4346 0.453896 35.6508 0.753906 34.71L0.899414 34.2969H0.900391C1.52535 32.684 3.02432 31.9407 4.59375 31.9395C8.0126 32.0087 11.395 31.8701 14.7598 32.0752V32.0762C17.0183 32.225 18.8668 31.2346 20.1016 29.8516C21.2482 28.5672 21.8994 26.9054 21.8438 25.4346L21.8232 25.1426C21.7452 24.3966 21.5314 23.7002 21.293 23.043C21.1066 22.5292 20.9197 22.0744 20.7471 21.6045L20.5801 21.127L20.5791 21.125L20.3506 20.4717C20.1135 19.823 19.8546 19.1851 19.5996 18.5566C19.3431 17.9243 19.0903 17.3013 18.8613 16.6748L18.6406 16.0469L18.6387 16.041L18.2871 15.0762C18.1751 14.7644 18.0756 14.4624 18.0078 14.1709L18.0039 14.1543L17.999 14.1387L17.9385 13.9209C17.6654 12.8474 17.84 11.9854 18.2773 11.2793C18.6963 10.6031 19.3794 10.0341 20.2324 9.57324L20.6084 9.38281C21.4357 8.98746 22.1794 8.94632 22.8867 9.11719C23.5198 9.27017 24.142 9.59741 24.7783 10.0342L25.0518 10.2275L25.0547 10.2295C25.7689 10.7415 26.4837 11.2715 27.2021 11.8037C27.561 12.0695 27.9209 12.3358 28.2812 12.6006L29.3623 13.3867C30.0867 13.906 30.7407 14.4375 31.4922 14.9941C32.1285 15.4655 32.7943 15.9225 33.5088 16.2959L33.8174 16.4502L33.8281 16.4551C35.0971 17.0259 36.4453 17.4174 38.1133 16.9619L38.1123 16.9609C39.9514 16.518 41.2689 15.5555 42.2656 14.1631L42.2646 14.1621C43.0423 13.1166 43.2922 11.8921 43.626 10.8711C44.3629 8.61703 44.9113 6.43032 45.7031 4.22852L45.707 4.21875L45.71 4.20898C45.9447 3.46097 46.0613 2.87365 46.3828 2.32031L46.3916 2.30566L46.3994 2.29004C46.8683 1.33763 47.5877 0.770247 48.6543 0.604492L48.873 0.576172L48.8818 0.575195Z" fill="#FFEC0F" stroke="black"/>
<path d="M27.7363 43.6348H30.3535L36.5156 53.0879V43.6348H39.25V58H36.623L30.4707 48.5762V58H27.7363V43.6348ZM42.541 43.6348H50.3828V46.3105H45.2559V48.9082H50.3828V51.5352H45.2559V55.3145H50.3828V58H42.541V43.6348ZM51.8477 43.6348H54.543L56.6133 52.8047L59.1816 43.6348H61.457L64.0547 52.8047L66.1055 43.6348H68.8008L65.5684 58H62.9414L60.2949 48.7129L57.6973 58H55.0996L51.8477 43.6348ZM70.7539 43.2734H73.4492V53.7715H70.7539V43.2734ZM72.1016 54.9336C72.5638 54.9336 72.9577 55.0964 73.2832 55.4219C73.6152 55.7474 73.7812 56.1413 73.7812 56.6035C73.7812 57.0592 73.6152 57.4531 73.2832 57.7852C72.9577 58.1107 72.5638 58.2734 72.1016 58.2734C71.6393 58.2734 71.2454 58.1107 70.9199 57.7852C70.5944 57.4596 70.4316 57.0658 70.4316 56.6035C70.4316 56.1413 70.5944 55.7474 70.9199 55.4219C71.2454 55.0964 71.6393 54.9336 72.1016 54.9336Z" fill="black"/>
</svg>
