<svg width="16" height="24" viewBox="0 0 16 24" fill="none" xmlns="http://www.w3.org/2000/svg">
<g clip-path="url(#clip0_10892_3693)">
<g clip-path="url(#clip1_10892_3693)">
<path d="M1.48569 10.2945C1.60751 10.1731 1.73967 10.0706 1.87871 9.98152L11.1803 0.680358C12.0877 -0.226643 13.5599 -0.227073 14.4678 0.680789C15.3756 1.58822 15.3756 3.05999 14.4678 3.96829L6.4572 11.9789L14.5091 20.0313C15.417 20.9387 15.417 22.4101 14.5091 23.3188C14.055 23.7734 13.4597 23.9998 12.8656 23.9998C12.2716 23.9998 11.6758 23.7734 11.2221 23.3188L1.87871 13.9745C1.73967 13.8855 1.60665 13.783 1.48569 13.6616C1.02165 13.1975 0.797801 12.5863 0.808993 11.978C0.797801 11.3698 1.02165 10.759 1.48569 10.2945Z" fill="#45576D"/>
</g>
</g>
<defs>
<clipPath id="clip0_10892_3693">
<rect width="14.4" height="24" fill="white" transform="translate(0.800781)"/>
</clipPath>
<clipPath id="clip1_10892_3693">
<rect width="14.4" height="24" fill="white" transform="translate(0.800781)"/>
</clipPath>
</defs>
</svg>
