<svg width="88" height="17" viewBox="0 0 88 17" fill="none" xmlns="http://www.w3.org/2000/svg">
<mask id="mask0_10940_1124" style="mask-type:alpha" maskUnits="userSpaceOnUse" x="0" y="1" width="16" height="16">
<path d="M7.5984 1.40912C7.75395 1.06154 8.24605 1.06154 8.4016 1.40912L10.4 5.87473C10.464 6.01775 10.5989 6.116 10.7543 6.13285L15.6066 6.65905C15.9843 6.70001 16.1363 7.16933 15.8548 7.4251L12.2376 10.7112C12.1217 10.8165 12.0702 10.9754 12.1023 11.1288L13.1027 15.9196C13.1806 16.2926 12.7825 16.5826 12.4529 16.3931L8.21892 13.9585C8.08334 13.8805 7.91666 13.8805 7.78108 13.9585L3.54705 16.3931C3.2175 16.5826 2.81942 16.2926 2.89729 15.9197L3.89774 11.1288C3.92978 10.9754 3.87828 10.8165 3.76243 10.7112L0.145216 7.4251C-0.136325 7.16933 0.0157231 6.70001 0.393398 6.65905L5.24573 6.13285C5.40113 6.116 5.53597 6.01775 5.59997 5.87473L7.5984 1.40912Z" fill="#E8EFF7"/>
</mask>
<g mask="url(#mask0_10940_1124)">
<path d="M7.5984 1.40912C7.75395 1.06154 8.24605 1.06154 8.4016 1.40912L10.4 5.87473C10.464 6.01775 10.5989 6.116 10.7543 6.13285L15.6066 6.65905C15.9843 6.70001 16.1363 7.16933 15.8548 7.4251L12.2376 10.7112C12.1217 10.8165 12.0702 10.9754 12.1023 11.1288L13.1027 15.9196C13.1806 16.2926 12.7825 16.5826 12.4529 16.3931L8.21892 13.9585C8.08334 13.8805 7.91666 13.8805 7.78108 13.9585L3.54705 16.3931C3.2175 16.5826 2.81942 16.2926 2.89729 15.9197L3.89774 11.1288C3.92978 10.9754 3.87828 10.8165 3.76243 10.7112L0.145216 7.4251C-0.136325 7.16933 0.0157231 6.70001 0.393398 6.65905L5.24573 6.13285C5.40113 6.116 5.53597 6.01775 5.59997 5.87473L7.5984 1.40912Z" fill="#E8EFF7"/>
<path d="M73.3968 1.14844H0V16.4528H73.3968V1.14844Z" fill="#F5D816"/>
</g>
<mask id="mask1_10940_1124" style="mask-type:alpha" maskUnits="userSpaceOnUse" x="18" y="1" width="16" height="16">
<path d="M25.5984 1.40912C25.7539 1.06154 26.2461 1.06154 26.4016 1.40912L28.4 5.87473C28.464 6.01775 28.5989 6.116 28.7543 6.13285L33.6066 6.65905C33.9843 6.70001 34.1363 7.16933 33.8548 7.4251L30.2376 10.7112C30.1217 10.8165 30.0702 10.9754 30.1023 11.1288L31.1027 15.9196C31.1806 16.2926 30.7825 16.5826 30.4529 16.3931L26.2189 13.9585C26.0833 13.8805 25.9167 13.8805 25.7811 13.9585L21.547 16.3931C21.2175 16.5826 20.8194 16.2926 20.8973 15.9197L21.8977 11.1288C21.9298 10.9754 21.8783 10.8165 21.7624 10.7112L18.1452 7.4251C17.8637 7.16933 18.0157 6.70001 18.3934 6.65905L23.2457 6.13285C23.4011 6.116 23.536 6.01775 23.6 5.87473L25.5984 1.40912Z" fill="#E8EFF7"/>
</mask>
<g mask="url(#mask1_10940_1124)">
<path d="M25.5984 1.40912C25.7539 1.06154 26.2461 1.06154 26.4016 1.40912L28.4 5.87473C28.464 6.01775 28.5989 6.116 28.7543 6.13285L33.6066 6.65905C33.9843 6.70001 34.1363 7.16933 33.8548 7.4251L30.2376 10.7112C30.1217 10.8165 30.0702 10.9754 30.1023 11.1288L31.1027 15.9196C31.1806 16.2926 30.7825 16.5826 30.4529 16.3931L26.2189 13.9585C26.0833 13.8805 25.9167 13.8805 25.7811 13.9585L21.547 16.3931C21.2175 16.5826 20.8194 16.2926 20.8973 15.9197L21.8977 11.1288C21.9298 10.9754 21.8783 10.8165 21.7624 10.7112L18.1452 7.4251C17.8637 7.16933 18.0157 6.70001 18.3934 6.65905L23.2457 6.13285C23.4011 6.116 23.536 6.01775 23.6 5.87473L25.5984 1.40912Z" fill="#E8EFF7"/>
<path d="M75.3968 1.14844H18V16.4528H75.3968V1.14844Z" fill="#F5D816"/>
</g>
<mask id="mask2_10940_1124" style="mask-type:alpha" maskUnits="userSpaceOnUse" x="36" y="1" width="16" height="16">
<path d="M43.5984 1.40912C43.7539 1.06154 44.2461 1.06154 44.4016 1.40912L46.4 5.87473C46.464 6.01775 46.5989 6.116 46.7543 6.13285L51.6066 6.65905C51.9843 6.70001 52.1363 7.16933 51.8548 7.4251L48.2376 10.7112C48.1217 10.8165 48.0702 10.9754 48.1023 11.1288L49.1027 15.9196C49.1806 16.2926 48.7825 16.5826 48.4529 16.3931L44.2189 13.9585C44.0833 13.8805 43.9167 13.8805 43.7811 13.9585L39.547 16.3931C39.2175 16.5826 38.8194 16.2926 38.8973 15.9197L39.8977 11.1288C39.9298 10.9754 39.8783 10.8165 39.7624 10.7112L36.1452 7.4251C35.8637 7.16933 36.0157 6.70001 36.3934 6.65905L41.2457 6.13285C41.4011 6.116 41.536 6.01775 41.6 5.87473L43.5984 1.40912Z" fill="#E8EFF7"/>
</mask>
<g mask="url(#mask2_10940_1124)">
<path d="M43.5984 1.40912C43.7539 1.06154 44.2461 1.06154 44.4016 1.40912L46.4 5.87473C46.464 6.01775 46.5989 6.116 46.7543 6.13285L51.6066 6.65905C51.9843 6.70001 52.1363 7.16933 51.8548 7.4251L48.2376 10.7112C48.1217 10.8165 48.0702 10.9754 48.1023 11.1288L49.1027 15.9196C49.1806 16.2926 48.7825 16.5826 48.4529 16.3931L44.2189 13.9585C44.0833 13.8805 43.9167 13.8805 43.7811 13.9585L39.547 16.3931C39.2175 16.5826 38.8194 16.2926 38.8973 15.9197L39.8977 11.1288C39.9298 10.9754 39.8783 10.8165 39.7624 10.7112L36.1452 7.4251C35.8637 7.16933 36.0157 6.70001 36.3934 6.65905L41.2457 6.13285C41.4011 6.116 41.536 6.01775 41.6 5.87473L43.5984 1.40912Z" fill="#E8EFF7"/>
<path d="M77.3968 1.14844H36V16.4528H77.3968V1.14844Z" fill="#F5D816"/>
</g>
<mask id="mask3_10940_1124" style="mask-type:alpha" maskUnits="userSpaceOnUse" x="54" y="1" width="16" height="16">
<path d="M61.5984 1.40912C61.7539 1.06154 62.2461 1.06154 62.4016 1.40912L64.4 5.87473C64.464 6.01775 64.5989 6.116 64.7543 6.13285L69.6066 6.65905C69.9843 6.70001 70.1363 7.16933 69.8548 7.4251L66.2376 10.7112C66.1217 10.8165 66.0702 10.9754 66.1023 11.1288L67.1027 15.9196C67.1806 16.2926 66.7825 16.5826 66.4529 16.3931L62.2189 13.9585C62.0833 13.8805 61.9167 13.8805 61.7811 13.9585L57.547 16.3931C57.2175 16.5826 56.8194 16.2926 56.8973 15.9197L57.8977 11.1288C57.9298 10.9754 57.8783 10.8165 57.7624 10.7112L54.1452 7.4251C53.8637 7.16933 54.0157 6.70001 54.3934 6.65905L59.2457 6.13285C59.4011 6.116 59.536 6.01775 59.6 5.87473L61.5984 1.40912Z" fill="#E8EFF7"/>
</mask>
<g mask="url(#mask3_10940_1124)">
<path d="M61.5984 1.40912C61.7539 1.06154 62.2461 1.06154 62.4016 1.40912L64.4 5.87473C64.464 6.01775 64.5989 6.116 64.7543 6.13285L69.6066 6.65905C69.9843 6.70001 70.1363 7.16933 69.8548 7.4251L66.2376 10.7112C66.1217 10.8165 66.0702 10.9754 66.1023 11.1288L67.1027 15.9196C67.1806 16.2926 66.7825 16.5826 66.4529 16.3931L62.2189 13.9585C62.0833 13.8805 61.9167 13.8805 61.7811 13.9585L57.547 16.3931C57.2175 16.5826 56.8194 16.2926 56.8973 15.9197L57.8977 11.1288C57.9298 10.9754 57.8783 10.8165 57.7624 10.7112L54.1452 7.4251C53.8637 7.16933 54.0157 6.70001 54.3934 6.65905L59.2457 6.13285C59.4011 6.116 59.536 6.01775 59.6 5.87473L61.5984 1.40912Z" fill="#E8EFF7"/>
<path d="M79.3968 1.14844H54V16.4528H79.3968V1.14844Z" fill="#F5D816"/>
</g>
<mask id="mask4_10940_1124" style="mask-type:alpha" maskUnits="userSpaceOnUse" x="72" y="1" width="16" height="16">
<path d="M79.5984 1.40912C79.7539 1.06154 80.2461 1.06154 80.4016 1.40912L82.4 5.87473C82.464 6.01775 82.5989 6.116 82.7543 6.13285L87.6066 6.65905C87.9843 6.70001 88.1363 7.16933 87.8548 7.4251L84.2376 10.7112C84.1217 10.8165 84.0702 10.9754 84.1023 11.1288L85.1027 15.9196C85.1806 16.2926 84.7825 16.5826 84.4529 16.3931L80.2189 13.9585C80.0833 13.8805 79.9167 13.8805 79.7811 13.9585L75.547 16.3931C75.2175 16.5826 74.8194 16.2926 74.8973 15.9197L75.8977 11.1288C75.9298 10.9754 75.8783 10.8165 75.7624 10.7112L72.1452 7.4251C71.8637 7.16933 72.0157 6.70001 72.3934 6.65905L77.2457 6.13285C77.4011 6.116 77.536 6.01775 77.6 5.87473L79.5984 1.40912Z" fill="#E8EFF7"/>
</mask>
<g mask="url(#mask4_10940_1124)">
<path d="M79.5984 1.40912C79.7539 1.06154 80.2461 1.06154 80.4016 1.40912L82.4 5.87473C82.464 6.01775 82.5989 6.116 82.7543 6.13285L87.6066 6.65905C87.9843 6.70001 88.1363 7.16933 87.8548 7.4251L84.2376 10.7112C84.1217 10.8165 84.0702 10.9754 84.1023 11.1288L85.1027 15.9196C85.1806 16.2926 84.7825 16.5826 84.4529 16.3931L80.2189 13.9585C80.0833 13.8805 79.9167 13.8805 79.7811 13.9585L75.547 16.3931C75.2175 16.5826 74.8194 16.2926 74.8973 15.9197L75.8977 11.1288C75.9298 10.9754 75.8783 10.8165 75.7624 10.7112L72.1452 7.4251C71.8637 7.16933 72.0157 6.70001 72.3934 6.65905L77.2457 6.13285C77.4011 6.116 77.536 6.01775 77.6 5.87473L79.5984 1.40912Z" fill="#E8EFF7"/>
<path d="M81.3968 1.14844H72V16.4528H81.3968V1.14844Z" fill="#F5D816"/>
</g>
</svg>
