<svg width="48" height="45" viewBox="0 0 48 45" fill="none" xmlns="http://www.w3.org/2000/svg">
<path d="M45.6 12H14.4C13.7635 12 13.153 11.7629 12.7029 11.341C12.2529 10.919 12 10.3467 12 9.75C12 9.15326 12.2529 8.58097 12.7029 8.15901C13.153 7.73706 13.7635 7.5 14.4 7.5H45.6C46.2366 7.5 46.847 7.73706 47.297 8.15901C47.7472 8.58097 48 9.15326 48 9.75C48 10.3467 47.7472 10.919 47.297 11.341C46.847 11.7629 46.2366 12 45.6 12ZM48 23.25C48 22.6532 47.7472 22.0809 47.297 21.6591C46.847 21.237 46.2366 21 45.6 21H2.4C1.76348 21 1.15303 21.237 0.702944 21.6591C0.252856 22.0809 0 22.6532 0 23.25C0 23.8468 0.252856 24.4191 0.702944 24.8409C1.15303 25.263 1.76348 25.5 2.4 25.5H45.6C46.2366 25.5 46.847 25.263 47.297 24.8409C47.7472 24.4191 48 23.8468 48 23.25ZM48 36.75C48 36.1532 47.7472 35.5809 47.297 35.1591C46.847 34.737 46.2366 34.5 45.6 34.5H24C23.3634 34.5 22.753 34.737 22.303 35.1591C21.8528 35.5809 21.6 36.1532 21.6 36.75C21.6 37.3468 21.8528 37.9191 22.303 38.3409C22.753 38.763 23.3634 39 24 39H45.6C46.2366 39 46.847 38.763 47.297 38.3409C47.7472 37.9191 48 37.3468 48 36.75Z" fill="black"/>
</svg>
