<svg width="50" height="50" viewBox="0 0 50 50" fill="none" xmlns="http://www.w3.org/2000/svg">
<mask id="mask0_10774_1115" style="mask-type:luminance" maskUnits="userSpaceOnUse" x="0" y="0" width="50" height="50">
<path d="M50 0H0V50H50V0Z" fill="white"/>
</mask>
<g mask="url(#mask0_10774_1115)">
<path d="M25 0C11.2148 0 0 11.2156 0 25C0 38.7844 11.2148 50 25 50C38.7844 50 50 38.7853 50 25C50 11.2148 38.7844 0 25 0ZM25 3.125C37.0616 3.125 46.875 12.9375 46.875 25C46.875 29.3773 45.5781 33.4538 43.3553 36.8772C42.2188 31.3506 38.6228 26.5672 33.5719 23.9609C35.0478 22.0953 35.9375 19.7453 35.9375 17.1875C35.9375 11.1562 31.0312 6.25 25 6.25C18.9688 6.25 14.0625 11.1562 14.0625 17.1875C14.0625 19.7453 14.9523 22.0953 16.4281 23.9609C11.3766 26.5672 7.78125 31.3506 6.64453 36.8772C4.42188 33.4538 3.125 29.3773 3.125 25C3.125 12.9375 12.9375 3.125 25 3.125ZM17.1875 17.1875C17.1875 12.8797 20.6922 9.375 25 9.375C29.3078 9.375 32.8125 12.8797 32.8125 17.1875C32.8125 21.4953 29.3078 25 25 25C20.6922 25 17.1875 21.4953 17.1875 17.1875ZM25 46.875C18.8906 46.875 13.3609 44.3537 9.38828 40.3016C9.51641 34.1647 13.2672 28.6469 18.8867 26.2531C20.6328 27.4344 22.7367 28.125 25 28.125C27.2625 28.125 29.3672 27.4344 31.1133 26.2531C36.7328 28.6469 40.4837 34.1647 40.6119 40.3016C36.6391 44.3537 31.1094 46.875 25 46.875Z" fill="black"/>
</g>
</svg>
